<svg width="144" height="151" viewBox="0 0 144 151" fill="none" xmlns="http://www.w3.org/2000/svg">
<rect width="144" height="136" rx="68" fill="#F5F6F6"/>
<rect x="25" y="31" width="93.3333" height="120" rx="3.33333" fill="#FFDEA8"/>
<rect x="30" y="36" width="83.3333" height="110" rx="3.33333" fill="white"/>
<rect x="35" y="47.668" width="11.6667" height="11.6667" fill="#E5E7E8"/>
<rect x="53.333" y="47.668" width="55" height="3.33333" fill="#E5E7E8"/>
<rect x="53.333" y="56" width="21.6667" height="3.33333" fill="#E5E7E8"/>
<rect x="35" y="72.668" width="11.6667" height="11.6667" fill="#E5E7E8"/>
<rect x="53.333" y="72.668" width="55" height="3.33333" fill="#E5E7E8"/>
<rect x="53.333" y="81" width="21.6667" height="3.33333" fill="#E5E7E8"/>
<rect x="35" y="97.668" width="11.6667" height="11.6667" fill="#E5E7E8"/>
<rect x="53.333" y="97.668" width="55" height="3.33333" fill="#E5E7E8"/>
<rect x="53.333" y="106" width="21.6667" height="3.33333" fill="#E5E7E8"/>
<rect x="35" y="122.668" width="11.6667" height="11.6667" fill="#E5E7E8"/>
<rect x="53.333" y="122.668" width="55" height="3.33333" fill="#E5E7E8"/>
<rect x="53.333" y="131" width="21.6667" height="3.33333" fill="#E5E7E8"/>
<rect x="43.333" y="27.668" width="56.6667" height="13.3333" rx="3.33333" fill="#FFC570"/>
</svg>
